<?xml version="1.0" encoding="utf-8"?>
<!-- Svg Vector Icons : http://www.onlinewebfonts.com/icon -->
<!DOCTYPE svg PUBLIC "-//W3C//DTD SVG 1.1//EN" "http://www.w3.org/Graphics/SVG/1.1/DTD/svg11.dtd">
<svg version="1.1" xmlns="http://www.w3.org/2000/svg" xmlns:xlink="http://www.w3.org/1999/xlink" x="0px" y="0px" viewBox="0 0 1000 1000" style="fill: #979eaa" enable-background="new 0 0 1000 1000" xml:space="preserve">
<metadata> Svg Vector Icons : http://www.onlinewebfonts.com/icon </metadata>
<g><path d="M555.6,811.4c23.7-23.7,55.3-36.3,88.9-36.3c5,0,10,0.6,15,1.1l22-21.9l-36.9-36.8l-11.3,11.3L511.8,607.4l26.8-26.7c-1.3-11.2-1.3-20-1.3-20s63.9-65.6,77.8-153.8c37.4,0,60.6-93.7,23.1-126.7c1.6-34.7,48.2-272.6-187.7-272.6c-235.8,0-189.3,237.9-187.7,272.6c-37.4,33-14.3,126.7,23.1,126.7c13.9,88.2,77.8,153.8,77.8,153.8s-0.5,60.9-22.2,64.6C271.5,636.9,10,756.4,10,886.6h509.3C522.1,861.1,534.5,832.5,555.6,811.4z"/><path d="M978.3,924.2l-84.8-84.9l11.3-11.3l-11.3-11.3l-33.9,33.9L803,794.1l68-68c9,3.2,18.5,4.8,28.2,4.8c22.4,0,43.5-8.7,59.3-24.5c24.4-24.5,31.4-60.8,17.7-92.6l-4.7-10.8l-36.4,36.5l-29.3,0.4l0.4-28l37.2-37.1l-10.8-4.7c-10.6-4.6-21.9-6.9-33.5-6.9c-22.4,0-43.5,8.7-59.3,24.5c-23.2,23.2-30.6,57.1-19.7,87.6l-67.9,67.9l-96.2-96.1l11.3-11.3l-62.2-62.2l-34,33.9l62.2,62.2l11.3-11.3l96.2,96.1l-67.9,67.9c-9.1-3.2-18.6-4.9-28.3-4.9c-22.4,0-43.5,8.7-59.3,24.6c-24.5,24.5-31.4,60.9-17.6,92.7l4.7,10.8l37.2-37.2l28-0.4l-0.4,29.3l-36.5,36.5l10.8,4.6c10.6,4.6,21.8,6.9,33.3,6.9c22.4,0,43.5-8.7,59.3-24.6c23.2-23.2,30.6-57,19.7-87.5l68-68l56.6,56.6l-33.9,33.9l11.3,11.3l11.3-11.3l84.8,84.8c7.6,7.6,17.6,11.8,28.3,11.8c10.7,0,20.7-4.2,28.3-11.8C993.9,965.1,993.9,939.7,978.3,924.2L978.3,924.2z"/></g>
</svg>