<svg xmlns="http://www.w3.org/2000/svg" width="113" height="27" fill="none" viewBox="0 0 113 27"><path fill="#1ABC9C" d="M0 5C0 2.23858 2.23858 0 5 0H108C110.761 0 113 2.23858 113 5V22C113 24.7614 110.761 27 108 27H5C2.23858 27 0 24.7614 0 22V5Z"/><path fill="#FFF" d="M31.5898 7.08715V18.3192H28.8538V11.5832L26.3418 18.3192H24.1338L21.6058 11.5672V18.3192H18.8698V7.08715H22.1018L25.2538 14.8632L28.3738 7.08715H31.5898ZM33.9733 13.8392C33.9733 12.9218 34.144 12.1165 34.4853 11.4232C34.8373 10.7298 35.312 10.1965 35.9093 9.82315C36.5066 9.44982 37.1733 9.26315 37.9093 9.26315C38.5386 9.26315 39.088 9.39115 39.5573 9.64715C40.0373 9.90315 40.4053 10.2392 40.6613 10.6552V9.39115H43.3973V18.3192H40.6613V17.0552C40.3946 17.4712 40.0213 17.8072 39.5413 18.0632C39.072 18.3192 38.5226 18.4472 37.8933 18.4472C37.168 18.4472 36.5066 18.2605 35.9093 17.8872C35.312 17.5032 34.8373 16.9645 34.4853 16.2712C34.144 15.5672 33.9733 14.7565 33.9733 13.8392ZM40.6613 13.8552C40.6613 13.1725 40.4693 12.6338 40.0853 12.2392C39.712 11.8445 39.2533 11.6472 38.7093 11.6472C38.1653 11.6472 37.7013 11.8445 37.3173 12.2392C36.944 12.6232 36.7573 13.1565 36.7573 13.8392C36.7573 14.5218 36.944 15.0658 37.3173 15.4712C37.7013 15.8658 38.1653 16.0632 38.7093 16.0632C39.2533 16.0632 39.712 15.8658 40.0853 15.4712C40.4693 15.0765 40.6613 14.5378 40.6613 13.8552ZM45.7927 13.8552C45.7927 12.9272 45.9793 12.1165 46.3527 11.4232C46.7367 10.7298 47.2647 10.1965 47.9367 9.82315C48.6193 9.44982 49.398 9.26315 50.2727 9.26315C51.3927 9.26315 52.326 9.55649 53.0727 10.1432C53.83 10.7298 54.326 11.5565 54.5607 12.6232H51.6487C51.4033 11.9405 50.9287 11.5992 50.2247 11.5992C49.7233 11.5992 49.3233 11.7965 49.0247 12.1912C48.726 12.5752 48.5767 13.1298 48.5767 13.8552C48.5767 14.5805 48.726 15.1405 49.0247 15.5352C49.3233 15.9192 49.7233 16.1112 50.2247 16.1112C50.9287 16.1112 51.4033 15.7698 51.6487 15.0872H54.5607C54.326 16.1325 53.83 16.9538 53.0727 17.5512C52.3153 18.1485 51.382 18.4472 50.2727 18.4472C49.398 18.4472 48.6193 18.2605 47.9367 17.8872C47.2647 17.5138 46.7367 16.9805 46.3527 16.2872C45.9793 15.5938 45.7927 14.7832 45.7927 13.8552ZM62.4402 18.3192L59.7202 14.5752V18.3192H56.9842V6.47915H59.7202V13.0232L62.4242 9.39115H65.8002L62.0882 13.8712L65.8322 18.3192H62.4402ZM67.2908 13.8392C67.2908 12.9218 67.4615 12.1165 67.8028 11.4232C68.1548 10.7298 68.6295 10.1965 69.2268 9.82315C69.8241 9.44982 70.4908 9.26315 71.2268 9.26315C71.8135 9.26315 72.3468 9.38582 72.8268 9.63115C73.3175 9.87649 73.7015 10.2072 73.9788 10.6232V6.47915H76.7148V18.3192H73.9788V17.0392C73.7228 17.4658 73.3548 17.8072 72.8748 18.0632C72.4055 18.3192 71.8561 18.4472 71.2268 18.4472C70.4908 18.4472 69.8241 18.2605 69.2268 17.8872C68.6295 17.5032 68.1548 16.9645 67.8028 16.2712C67.4615 15.5672 67.2908 14.7565 67.2908 13.8392ZM73.9788 13.8552C73.9788 13.1725 73.7868 12.6338 73.4028 12.2392C73.0295 11.8445 72.5708 11.6472 72.0268 11.6472C71.4828 11.6472 71.0188 11.8445 70.6348 12.2392C70.2615 12.6232 70.0748 13.1565 70.0748 13.8392C70.0748 14.5218 70.2615 15.0658 70.6348 15.4712C71.0188 15.8658 71.4828 16.0632 72.0268 16.0632C72.5708 16.0632 73.0295 15.8658 73.4028 15.4712C73.7868 15.0765 73.9788 14.5378 73.9788 13.8552ZM81.0302 8.46315C80.5502 8.46315 80.1555 8.32449 79.8462 8.04715C79.5475 7.75915 79.3982 7.40715 79.3982 6.99115C79.3982 6.56449 79.5475 6.21249 79.8462 5.93515C80.1555 5.64715 80.5502 5.50315 81.0302 5.50315C81.4995 5.50315 81.8835 5.64715 82.1822 5.93515C82.4915 6.21249 82.6462 6.56449 82.6462 6.99115C82.6462 7.40715 82.4915 7.75915 82.1822 8.04715C81.8835 8.32449 81.4995 8.46315 81.0302 8.46315ZM82.3902 9.39115V18.3192H79.6542V9.39115H82.3902ZM90.7729 9.29515C91.8183 9.29515 92.6503 9.63649 93.2689 10.3192C93.8983 10.9912 94.2129 11.9192 94.2129 13.1032V18.3192H91.4929V13.4712C91.4929 12.8738 91.3383 12.4098 91.0289 12.0792C90.7196 11.7485 90.3036 11.5832 89.7809 11.5832C89.2583 11.5832 88.8423 11.7485 88.5329 12.0792C88.2236 12.4098 88.0689 12.8738 88.0689 13.4712V18.3192H85.3329V9.39115H88.0689V10.5752C88.3463 10.1805 88.7196 9.87115 89.1889 9.64715C89.6583 9.41249 90.1863 9.29515 90.7729 9.29515Z"/></svg>